<svg width="24" height="21" viewBox="0 0 24 21" fill="none" xmlns="http://www.w3.org/2000/svg">
<path d="M12 14.1647H13.8566C13.9671 14.1647 14.0566 14.2543 14.0566 14.3647V20.8C14.0566 20.9105 14.1462 21 14.2566 21H20.5662C20.6766 21 20.7662 20.9105 20.7662 20.8V10.5869C20.7662 10.4765 20.8557 10.3869 20.9662 10.3869H23.4633C23.6485 10.3869 23.7343 10.1569 23.5942 10.0357L12.1309 0.113297C12.0558 0.0482567 11.9443 0.0482561 11.8691 0.113297L0.405764 10.0357C0.265733 10.1569 0.351453 10.3869 0.536656 10.3869H3.02916C3.13962 10.3869 3.22916 10.4765 3.22916 10.5869V20.8C3.22916 20.9105 3.3187 21 3.42916 21H9.74339C9.85385 21 9.94339 20.9105 9.94339 20.8V14.3647C9.94339 14.2543 10.0329 14.1647 10.1434 14.1647H12Z" fill="#373535"/>
</svg>
