<svg width="24" height="18" viewBox="0 0 24 18" fill="none" xmlns="http://www.w3.org/2000/svg">
<path d="M9.38727 11.3668C8.71644 10.7928 8.30811 10.0128 8.30811 9.1378C8.30811 7.3848 9.95544 5.9718 11.9994 5.9718C13.0109 5.9718 13.9419 6.3228 14.6011 6.8968" stroke="#04021D" stroke-width="1.5" stroke-linecap="round" stroke-linejoin="round"/>
<path d="M15.6222 9.69897C15.3515 10.989 14.1662 12.007 12.6624 12.241" stroke="#04021D" stroke-width="1.5" stroke-linecap="round" stroke-linejoin="round"/>
<path d="M5.7636 14.4724C3.9121 13.2264 2.3441 11.4064 1.20776 9.13735C2.35576 6.85835 3.93426 5.02835 5.79743 3.77235C7.64893 2.51635 9.7851 1.83435 11.9994 1.83435C14.2266 1.83435 16.3616 2.52635 18.2248 3.79135" stroke="#04021D" stroke-width="1.5" stroke-linecap="round" stroke-linejoin="round"/>
<path d="M20.6887 5.99084C21.4914 6.90484 22.1972 7.95984 22.7911 9.13685C20.4962 13.6938 16.4409 16.4388 11.9994 16.4388C10.9926 16.4388 9.99974 16.2988 9.04541 16.0258" stroke="#04021D" stroke-width="1.5" stroke-linecap="round" stroke-linejoin="round"/>
<path d="M21.2013 1.24963L2.79834 17.0236" stroke="#04021D" stroke-width="1.5" stroke-linecap="round" stroke-linejoin="round"/>
</svg>
