<svg width="24" height="17" viewBox="0 0 24 17" fill="none" xmlns="http://www.w3.org/2000/svg">
<path d="M11.9167 0C6.5 0 1.87417 3.36917 0 8.125C1.87417 12.8808 6.5 16.25 11.9167 16.25C17.3333 16.25 21.9592 12.8808 23.8333 8.125C21.9592 3.36917 17.3333 0 11.9167 0ZM11.9167 13.5417C8.92667 13.5417 6.5 11.115 6.5 8.125C6.5 5.135 8.92667 2.70833 11.9167 2.70833C14.9067 2.70833 17.3333 5.135 17.3333 8.125C17.3333 11.115 14.9067 13.5417 11.9167 13.5417ZM11.9167 4.875C10.1183 4.875 8.66667 6.32667 8.66667 8.125C8.66667 9.92333 10.1183 11.375 11.9167 11.375C13.715 11.375 15.1667 9.92333 15.1667 8.125C15.1667 6.32667 13.715 4.875 11.9167 4.875Z" fill="black"/>
</svg>
